<svg xmlns="http://www.w3.org/2000/svg" width="2000" height="700" viewBox="0 0 2000 700">
<rect width="100%" height="100%" fill="#ffffff"/>
<text x="1000.00" y="34.00" text-anchor="middle" font-size="21" font-weight="bold" fill="#17202a">Quantum trajectories: N=10, U=10, M=4, Dmax=400, dt=0.025</text>
<text x="1000.00" y="59.00" text-anchor="middle" font-size="13" font-weight="normal" fill="#17202a">Points: trajectory mean; bars: standard error; crosses: U=10 GS; dashed: U=0 GS D100 (unconverged)</text>
<rect x="75" y="100" width="520" height="440" fill="none" stroke="#4b5563"/>
<line x1="75" x2="595" y1="540.00" y2="540.00" stroke="#d9dee5"/>
<text x="65.00" y="545.00" text-anchor="end" font-size="12" font-weight="normal" fill="#17202a">0.009</text>
<line x1="75" x2="595" y1="452.00" y2="452.00" stroke="#d9dee5"/>
<text x="65.00" y="457.00" text-anchor="end" font-size="12" font-weight="normal" fill="#17202a">0.021</text>
<line x1="75" x2="595" y1="364.00" y2="364.00" stroke="#d9dee5"/>
<text x="65.00" y="369.00" text-anchor="end" font-size="12" font-weight="normal" fill="#17202a">0.034</text>
<line x1="75" x2="595" y1="276.00" y2="276.00" stroke="#d9dee5"/>
<text x="65.00" y="281.00" text-anchor="end" font-size="12" font-weight="normal" fill="#17202a">0.046</text>
<line x1="75" x2="595" y1="188.00" y2="188.00" stroke="#d9dee5"/>
<text x="65.00" y="193.00" text-anchor="end" font-size="12" font-weight="normal" fill="#17202a">0.058</text>
<line x1="75" x2="595" y1="100.00" y2="100.00" stroke="#d9dee5"/>
<text x="65.00" y="105.00" text-anchor="end" font-size="12" font-weight="normal" fill="#17202a">0.071</text>
<line x1="75.00" x2="75.00" y1="100" y2="540" stroke="#edf0f4"/>
<text x="75.00" y="563.00" text-anchor="middle" font-size="12" font-weight="normal" fill="#17202a">0.9804</text>
<line x1="201.14" x2="201.14" y1="100" y2="540" stroke="#edf0f4"/>
<text x="201.14" y="563.00" text-anchor="middle" font-size="12" font-weight="normal" fill="#17202a">0.9901</text>
<line x1="329.80" x2="329.80" y1="100" y2="540" stroke="#edf0f4"/>
<text x="329.80" y="563.00" text-anchor="middle" font-size="12" font-weight="normal" fill="#17202a">1.</text>
<line x1="461.06" x2="461.06" y1="100" y2="540" stroke="#edf0f4"/>
<text x="461.06" y="563.00" text-anchor="middle" font-size="12" font-weight="normal" fill="#17202a">1.0101</text>
<line x1="595.00" x2="595.00" y1="100" y2="540" stroke="#edf0f4"/>
<text x="595.00" y="563.00" text-anchor="middle" font-size="12" font-weight="normal" fill="#17202a">1.0204</text>
<line x1="75.00" x2="75.00" y1="181.44" y2="181.44" stroke="#0072B2"/>
<line x1="72.00" x2="78.00" y1="181.44" y2="181.44" stroke="#0072B2"/>
<line x1="72.00" x2="78.00" y1="181.44" y2="181.44" stroke="#0072B2"/>
<line x1="201.14" x2="201.14" y1="249.53" y2="249.53" stroke="#0072B2"/>
<line x1="198.14" x2="204.14" y1="249.53" y2="249.53" stroke="#0072B2"/>
<line x1="198.14" x2="204.14" y1="249.53" y2="249.53" stroke="#0072B2"/>
<line x1="329.80" x2="329.80" y1="318.64" y2="318.64" stroke="#0072B2"/>
<line x1="326.80" x2="332.80" y1="318.64" y2="318.64" stroke="#0072B2"/>
<line x1="326.80" x2="332.80" y1="318.64" y2="318.64" stroke="#0072B2"/>
<line x1="461.06" x2="461.06" y1="383.26" y2="383.26" stroke="#0072B2"/>
<line x1="458.06" x2="464.06" y1="383.26" y2="383.26" stroke="#0072B2"/>
<line x1="458.06" x2="464.06" y1="383.26" y2="383.26" stroke="#0072B2"/>
<line x1="595.00" x2="595.00" y1="438.64" y2="438.64" stroke="#0072B2"/>
<line x1="592.00" x2="598.00" y1="438.64" y2="438.64" stroke="#0072B2"/>
<line x1="592.00" x2="598.00" y1="438.64" y2="438.64" stroke="#0072B2"/>
<polyline points="75.00,181.44 201.14,249.53 329.80,318.64 461.06,383.26 595.00,438.64" fill="none" stroke="#0072B2" stroke-width="2"/>
<circle cx="75.00" cy="181.44" r="3.5" fill="#0072B2" stroke="#ffffff" stroke-width="0.8"/>
<circle cx="201.14" cy="249.53" r="3.5" fill="#0072B2" stroke="#ffffff" stroke-width="0.8"/>
<circle cx="329.80" cy="318.64" r="3.5" fill="#0072B2" stroke="#ffffff" stroke-width="0.8"/>
<circle cx="461.06" cy="383.26" r="3.5" fill="#0072B2" stroke="#ffffff" stroke-width="0.8"/>
<circle cx="595.00" cy="438.64" r="3.5" fill="#0072B2" stroke="#ffffff" stroke-width="0.8"/>
<line x1="75.00" x2="75.00" y1="177.87" y2="127.02" stroke="#D55E00"/>
<line x1="72.00" x2="78.00" y1="177.87" y2="177.87" stroke="#D55E00"/>
<line x1="72.00" x2="78.00" y1="127.02" y2="127.02" stroke="#D55E00"/>
<line x1="201.14" x2="201.14" y1="247.56" y2="216.85" stroke="#D55E00"/>
<line x1="198.14" x2="204.14" y1="247.56" y2="247.56" stroke="#D55E00"/>
<line x1="198.14" x2="204.14" y1="216.85" y2="216.85" stroke="#D55E00"/>
<line x1="329.80" x2="329.80" y1="316.42" y2="290.58" stroke="#D55E00"/>
<line x1="326.80" x2="332.80" y1="316.42" y2="316.42" stroke="#D55E00"/>
<line x1="326.80" x2="332.80" y1="290.58" y2="290.58" stroke="#D55E00"/>
<line x1="461.06" x2="461.06" y1="381.03" y2="360.32" stroke="#D55E00"/>
<line x1="458.06" x2="464.06" y1="381.03" y2="381.03" stroke="#D55E00"/>
<line x1="458.06" x2="464.06" y1="360.32" y2="360.32" stroke="#D55E00"/>
<line x1="595.00" x2="595.00" y1="434.33" y2="396.34" stroke="#D55E00"/>
<line x1="592.00" x2="598.00" y1="434.33" y2="434.33" stroke="#D55E00"/>
<line x1="592.00" x2="598.00" y1="396.34" y2="396.34" stroke="#D55E00"/>
<polyline points="75.00,152.44 201.14,232.20 329.80,303.50 461.06,370.68 595.00,415.33" fill="none" stroke="#D55E00" stroke-width="2"/>
<circle cx="75.00" cy="152.44" r="3.5" fill="#D55E00" stroke="#ffffff" stroke-width="0.8"/>
<circle cx="201.14" cy="232.20" r="3.5" fill="#D55E00" stroke="#ffffff" stroke-width="0.8"/>
<circle cx="329.80" cy="303.50" r="3.5" fill="#D55E00" stroke="#ffffff" stroke-width="0.8"/>
<circle cx="461.06" cy="370.68" r="3.5" fill="#D55E00" stroke="#ffffff" stroke-width="0.8"/>
<circle cx="595.00" cy="415.33" r="3.5" fill="#D55E00" stroke="#ffffff" stroke-width="0.8"/>
<line x1="75.00" x2="75.00" y1="251.92" y2="153.87" stroke="#009E73"/>
<line x1="72.00" x2="78.00" y1="251.92" y2="251.92" stroke="#009E73"/>
<line x1="72.00" x2="78.00" y1="153.87" y2="153.87" stroke="#009E73"/>
<line x1="201.14" x2="201.14" y1="346.91" y2="228.90" stroke="#009E73"/>
<line x1="198.14" x2="204.14" y1="346.91" y2="346.91" stroke="#009E73"/>
<line x1="198.14" x2="204.14" y1="228.90" y2="228.90" stroke="#009E73"/>
<line x1="329.80" x2="329.80" y1="371.42" y2="282.37" stroke="#009E73"/>
<line x1="326.80" x2="332.80" y1="371.42" y2="371.42" stroke="#009E73"/>
<line x1="326.80" x2="332.80" y1="282.37" y2="282.37" stroke="#009E73"/>
<line x1="461.06" x2="461.06" y1="395.99" y2="332.72" stroke="#009E73"/>
<line x1="458.06" x2="464.06" y1="395.99" y2="395.99" stroke="#009E73"/>
<line x1="458.06" x2="464.06" y1="332.72" y2="332.72" stroke="#009E73"/>
<line x1="595.00" x2="595.00" y1="415.99" y2="362.61" stroke="#009E73"/>
<line x1="592.00" x2="598.00" y1="415.99" y2="415.99" stroke="#009E73"/>
<line x1="592.00" x2="598.00" y1="362.61" y2="362.61" stroke="#009E73"/>
<polyline points="75.00,202.90 201.14,287.91 329.80,326.89 461.06,364.35 595.00,389.30" fill="none" stroke="#009E73" stroke-width="2"/>
<circle cx="75.00" cy="202.90" r="3.5" fill="#009E73" stroke="#ffffff" stroke-width="0.8"/>
<circle cx="201.14" cy="287.91" r="3.5" fill="#009E73" stroke="#ffffff" stroke-width="0.8"/>
<circle cx="329.80" cy="326.89" r="3.5" fill="#009E73" stroke="#ffffff" stroke-width="0.8"/>
<circle cx="461.06" cy="364.35" r="3.5" fill="#009E73" stroke="#ffffff" stroke-width="0.8"/>
<circle cx="595.00" cy="389.30" r="3.5" fill="#009E73" stroke="#ffffff" stroke-width="0.8"/>
<line x1="75.00" x2="75.00" y1="433.95" y2="384.75" stroke="#CC79A7"/>
<line x1="72.00" x2="78.00" y1="433.95" y2="433.95" stroke="#CC79A7"/>
<line x1="72.00" x2="78.00" y1="384.75" y2="384.75" stroke="#CC79A7"/>
<line x1="201.14" x2="201.14" y1="453.97" y2="423.73" stroke="#CC79A7"/>
<line x1="198.14" x2="204.14" y1="453.97" y2="453.97" stroke="#CC79A7"/>
<line x1="198.14" x2="204.14" y1="423.73" y2="423.73" stroke="#CC79A7"/>
<line x1="329.80" x2="329.80" y1="467.63" y2="439.50" stroke="#CC79A7"/>
<line x1="326.80" x2="332.80" y1="467.63" y2="467.63" stroke="#CC79A7"/>
<line x1="326.80" x2="332.80" y1="439.50" y2="439.50" stroke="#CC79A7"/>
<line x1="461.06" x2="461.06" y1="482.89" y2="451.79" stroke="#CC79A7"/>
<line x1="458.06" x2="464.06" y1="482.89" y2="482.89" stroke="#CC79A7"/>
<line x1="458.06" x2="464.06" y1="451.79" y2="451.79" stroke="#CC79A7"/>
<line x1="595.00" x2="595.00" y1="497.86" y2="452.85" stroke="#CC79A7"/>
<line x1="592.00" x2="598.00" y1="497.86" y2="497.86" stroke="#CC79A7"/>
<line x1="592.00" x2="598.00" y1="452.85" y2="452.85" stroke="#CC79A7"/>
<polyline points="75.00,409.35 201.14,438.85 329.80,453.57 461.06,467.34 595.00,475.35" fill="none" stroke="#CC79A7" stroke-width="2"/>
<circle cx="75.00" cy="409.35" r="3.5" fill="#CC79A7" stroke="#ffffff" stroke-width="0.8"/>
<circle cx="201.14" cy="438.85" r="3.5" fill="#CC79A7" stroke="#ffffff" stroke-width="0.8"/>
<circle cx="329.80" cy="453.57" r="3.5" fill="#CC79A7" stroke="#ffffff" stroke-width="0.8"/>
<circle cx="461.06" cy="467.34" r="3.5" fill="#CC79A7" stroke="#ffffff" stroke-width="0.8"/>
<circle cx="595.00" cy="475.35" r="3.5" fill="#CC79A7" stroke="#ffffff" stroke-width="0.8"/>
<line x1="75.00" x2="75.00" y1="424.62" y2="392.88" stroke="#E69F00"/>
<line x1="72.00" x2="78.00" y1="424.62" y2="424.62" stroke="#E69F00"/>
<line x1="72.00" x2="78.00" y1="392.88" y2="392.88" stroke="#E69F00"/>
<line x1="201.14" x2="201.14" y1="456.70" y2="412.00" stroke="#E69F00"/>
<line x1="198.14" x2="204.14" y1="456.70" y2="456.70" stroke="#E69F00"/>
<line x1="198.14" x2="204.14" y1="412.00" y2="412.00" stroke="#E69F00"/>
<line x1="329.80" x2="329.80" y1="463.44" y2="428.64" stroke="#E69F00"/>
<line x1="326.80" x2="332.80" y1="463.44" y2="463.44" stroke="#E69F00"/>
<line x1="326.80" x2="332.80" y1="428.64" y2="428.64" stroke="#E69F00"/>
<line x1="461.06" x2="461.06" y1="470.75" y2="442.20" stroke="#E69F00"/>
<line x1="458.06" x2="464.06" y1="470.75" y2="470.75" stroke="#E69F00"/>
<line x1="458.06" x2="464.06" y1="442.20" y2="442.20" stroke="#E69F00"/>
<line x1="595.00" x2="595.00" y1="469.54" y2="446.11" stroke="#E69F00"/>
<line x1="592.00" x2="598.00" y1="469.54" y2="469.54" stroke="#E69F00"/>
<line x1="592.00" x2="598.00" y1="446.11" y2="446.11" stroke="#E69F00"/>
<polyline points="75.00,408.75 201.14,434.35 329.80,446.04 461.06,456.47 595.00,457.83" fill="none" stroke="#E69F00" stroke-width="2"/>
<circle cx="75.00" cy="408.75" r="3.5" fill="#E69F00" stroke="#ffffff" stroke-width="0.8"/>
<circle cx="201.14" cy="434.35" r="3.5" fill="#E69F00" stroke="#ffffff" stroke-width="0.8"/>
<circle cx="329.80" cy="446.04" r="3.5" fill="#E69F00" stroke="#ffffff" stroke-width="0.8"/>
<circle cx="461.06" cy="456.47" r="3.5" fill="#E69F00" stroke="#ffffff" stroke-width="0.8"/>
<circle cx="595.00" cy="457.83" r="3.5" fill="#E69F00" stroke="#ffffff" stroke-width="0.8"/>
<line x1="75.00" x2="75.00" y1="485.16" y2="390.49" stroke="#56B4E9"/>
<line x1="72.00" x2="78.00" y1="485.16" y2="485.16" stroke="#56B4E9"/>
<line x1="72.00" x2="78.00" y1="390.49" y2="390.49" stroke="#56B4E9"/>
<line x1="201.14" x2="201.14" y1="501.50" y2="415.07" stroke="#56B4E9"/>
<line x1="198.14" x2="204.14" y1="501.50" y2="501.50" stroke="#56B4E9"/>
<line x1="198.14" x2="204.14" y1="415.07" y2="415.07" stroke="#56B4E9"/>
<line x1="329.80" x2="329.80" y1="503.13" y2="435.07" stroke="#56B4E9"/>
<line x1="326.80" x2="332.80" y1="503.13" y2="503.13" stroke="#56B4E9"/>
<line x1="326.80" x2="332.80" y1="435.07" y2="435.07" stroke="#56B4E9"/>
<line x1="461.06" x2="461.06" y1="505.08" y2="453.85" stroke="#56B4E9"/>
<line x1="458.06" x2="464.06" y1="505.08" y2="505.08" stroke="#56B4E9"/>
<line x1="458.06" x2="464.06" y1="453.85" y2="453.85" stroke="#56B4E9"/>
<line x1="595.00" x2="595.00" y1="493.40" y2="464.67" stroke="#56B4E9"/>
<line x1="592.00" x2="598.00" y1="493.40" y2="493.40" stroke="#56B4E9"/>
<line x1="592.00" x2="598.00" y1="464.67" y2="464.67" stroke="#56B4E9"/>
<polyline points="75.00,437.82 201.14,458.29 329.80,469.10 461.06,479.46 595.00,479.03" fill="none" stroke="#56B4E9" stroke-width="2"/>
<circle cx="75.00" cy="437.82" r="3.5" fill="#56B4E9" stroke="#ffffff" stroke-width="0.8"/>
<circle cx="201.14" cy="458.29" r="3.5" fill="#56B4E9" stroke="#ffffff" stroke-width="0.8"/>
<circle cx="329.80" cy="469.10" r="3.5" fill="#56B4E9" stroke="#ffffff" stroke-width="0.8"/>
<circle cx="461.06" cy="479.46" r="3.5" fill="#56B4E9" stroke="#ffffff" stroke-width="0.8"/>
<circle cx="595.00" cy="479.03" r="3.5" fill="#56B4E9" stroke="#ffffff" stroke-width="0.8"/>
<line x1="75.00" x2="75.00" y1="501.81" y2="462.22" stroke="#7A3E9D"/>
<line x1="72.00" x2="78.00" y1="501.81" y2="501.81" stroke="#7A3E9D"/>
<line x1="72.00" x2="78.00" y1="462.22" y2="462.22" stroke="#7A3E9D"/>
<line x1="201.14" x2="201.14" y1="512.98" y2="470.52" stroke="#7A3E9D"/>
<line x1="198.14" x2="204.14" y1="512.98" y2="512.98" stroke="#7A3E9D"/>
<line x1="198.14" x2="204.14" y1="470.52" y2="470.52" stroke="#7A3E9D"/>
<line x1="329.80" x2="329.80" y1="512.26" y2="472.12" stroke="#7A3E9D"/>
<line x1="326.80" x2="332.80" y1="512.26" y2="512.26" stroke="#7A3E9D"/>
<line x1="326.80" x2="332.80" y1="472.12" y2="472.12" stroke="#7A3E9D"/>
<line x1="461.06" x2="461.06" y1="507.21" y2="470.88" stroke="#7A3E9D"/>
<line x1="458.06" x2="464.06" y1="507.21" y2="507.21" stroke="#7A3E9D"/>
<line x1="458.06" x2="464.06" y1="470.88" y2="470.88" stroke="#7A3E9D"/>
<line x1="595.00" x2="595.00" y1="504.39" y2="469.52" stroke="#7A3E9D"/>
<line x1="592.00" x2="598.00" y1="504.39" y2="504.39" stroke="#7A3E9D"/>
<line x1="592.00" x2="598.00" y1="469.52" y2="469.52" stroke="#7A3E9D"/>
<polyline points="75.00,482.02 201.14,491.75 329.80,492.19 461.06,489.05 595.00,486.96" fill="none" stroke="#7A3E9D" stroke-width="2"/>
<circle cx="75.00" cy="482.02" r="3.5" fill="#7A3E9D" stroke="#ffffff" stroke-width="0.8"/>
<circle cx="201.14" cy="491.75" r="3.5" fill="#7A3E9D" stroke="#ffffff" stroke-width="0.8"/>
<circle cx="329.80" cy="492.19" r="3.5" fill="#7A3E9D" stroke="#ffffff" stroke-width="0.8"/>
<circle cx="461.06" cy="489.05" r="3.5" fill="#7A3E9D" stroke="#ffffff" stroke-width="0.8"/>
<circle cx="595.00" cy="486.96" r="3.5" fill="#7A3E9D" stroke="#ffffff" stroke-width="0.8"/>
<path d="M590.00,433.64 L600.00,443.64 M590.00,443.64 L600.00,433.64" stroke="#111827" stroke-width="2"/>
<path d="M456.06,378.26 L466.06,388.26 M456.06,388.26 L466.06,378.26" stroke="#111827" stroke-width="2"/>
<path d="M324.80,313.64 L334.80,323.64 M324.80,323.64 L334.80,313.64" stroke="#111827" stroke-width="2"/>
<path d="M196.14,244.53 L206.14,254.53 M196.14,254.53 L206.14,244.53" stroke="#111827" stroke-width="2"/>
<path d="M70.00,176.44 L80.00,186.44 M70.00,186.44 L80.00,176.44" stroke="#111827" stroke-width="2"/>
<polyline points="75.00,458.98 201.14,461.00 329.80,463.04 461.06,465.08 595.00,467.11" fill="none" stroke="#6b7280" stroke-width="2" stroke-dasharray="7 5"/>
<rect x="324.80" y="226.08" width="10" height="10" fill="#ffffff" stroke="#6b7280" stroke-width="2"/>
<text x="335.00" y="84.00" text-anchor="middle" font-size="17" font-weight="bold" fill="#17202a">Odd string order</text>
<text x="335.00" y="591.00" text-anchor="middle" font-size="15" font-weight="normal" fill="#17202a">t_R / t_D</text>
<text x="11.00" y="320.00" text-anchor="middle" font-size="15" font-weight="normal" fill="#17202a" transform="rotate(-90 11 320.0)">String order</text>
<rect x="710" y="100" width="520" height="440" fill="none" stroke="#4b5563"/>
<line x1="710" x2="1230" y1="540.00" y2="540.00" stroke="#d9dee5"/>
<text x="700.00" y="545.00" text-anchor="end" font-size="12" font-weight="normal" fill="#17202a">0.009</text>
<line x1="710" x2="1230" y1="452.00" y2="452.00" stroke="#d9dee5"/>
<text x="700.00" y="457.00" text-anchor="end" font-size="12" font-weight="normal" fill="#17202a">0.021</text>
<line x1="710" x2="1230" y1="364.00" y2="364.00" stroke="#d9dee5"/>
<text x="700.00" y="369.00" text-anchor="end" font-size="12" font-weight="normal" fill="#17202a">0.032</text>
<line x1="710" x2="1230" y1="276.00" y2="276.00" stroke="#d9dee5"/>
<text x="700.00" y="281.00" text-anchor="end" font-size="12" font-weight="normal" fill="#17202a">0.044</text>
<line x1="710" x2="1230" y1="188.00" y2="188.00" stroke="#d9dee5"/>
<text x="700.00" y="193.00" text-anchor="end" font-size="12" font-weight="normal" fill="#17202a">0.056</text>
<line x1="710" x2="1230" y1="100.00" y2="100.00" stroke="#d9dee5"/>
<text x="700.00" y="105.00" text-anchor="end" font-size="12" font-weight="normal" fill="#17202a">0.068</text>
<line x1="710.00" x2="710.00" y1="100" y2="540" stroke="#edf0f4"/>
<text x="710.00" y="563.00" text-anchor="middle" font-size="12" font-weight="normal" fill="#17202a">0.9804</text>
<line x1="836.14" x2="836.14" y1="100" y2="540" stroke="#edf0f4"/>
<text x="836.14" y="563.00" text-anchor="middle" font-size="12" font-weight="normal" fill="#17202a">0.9901</text>
<line x1="964.80" x2="964.80" y1="100" y2="540" stroke="#edf0f4"/>
<text x="964.80" y="563.00" text-anchor="middle" font-size="12" font-weight="normal" fill="#17202a">1.</text>
<line x1="1096.06" x2="1096.06" y1="100" y2="540" stroke="#edf0f4"/>
<text x="1096.06" y="563.00" text-anchor="middle" font-size="12" font-weight="normal" fill="#17202a">1.0101</text>
<line x1="1230.00" x2="1230.00" y1="100" y2="540" stroke="#edf0f4"/>
<text x="1230.00" y="563.00" text-anchor="middle" font-size="12" font-weight="normal" fill="#17202a">1.0204</text>
<line x1="710.00" x2="710.00" y1="432.84" y2="432.84" stroke="#0072B2"/>
<line x1="707.00" x2="713.00" y1="432.84" y2="432.84" stroke="#0072B2"/>
<line x1="707.00" x2="713.00" y1="432.84" y2="432.84" stroke="#0072B2"/>
<line x1="836.14" x2="836.14" y1="375.70" y2="375.70" stroke="#0072B2"/>
<line x1="833.14" x2="839.14" y1="375.70" y2="375.70" stroke="#0072B2"/>
<line x1="833.14" x2="839.14" y1="375.70" y2="375.70" stroke="#0072B2"/>
<line x1="964.80" x2="964.80" y1="307.61" y2="307.61" stroke="#0072B2"/>
<line x1="961.80" x2="967.80" y1="307.61" y2="307.61" stroke="#0072B2"/>
<line x1="961.80" x2="967.80" y1="307.61" y2="307.61" stroke="#0072B2"/>
<line x1="1096.06" x2="1096.06" y1="232.91" y2="232.91" stroke="#0072B2"/>
<line x1="1093.06" x2="1099.06" y1="232.91" y2="232.91" stroke="#0072B2"/>
<line x1="1093.06" x2="1099.06" y1="232.91" y2="232.91" stroke="#0072B2"/>
<line x1="1230.00" x2="1230.00" y1="157.44" y2="157.44" stroke="#0072B2"/>
<line x1="1227.00" x2="1233.00" y1="157.44" y2="157.44" stroke="#0072B2"/>
<line x1="1227.00" x2="1233.00" y1="157.44" y2="157.44" stroke="#0072B2"/>
<polyline points="710.00,432.84 836.14,375.70 964.80,307.61 1096.06,232.91 1230.00,157.44" fill="none" stroke="#0072B2" stroke-width="2"/>
<circle cx="710.00" cy="432.84" r="3.5" fill="#0072B2" stroke="#ffffff" stroke-width="0.8"/>
<circle cx="836.14" cy="375.70" r="3.5" fill="#0072B2" stroke="#ffffff" stroke-width="0.8"/>
<circle cx="964.80" cy="307.61" r="3.5" fill="#0072B2" stroke="#ffffff" stroke-width="0.8"/>
<circle cx="1096.06" cy="232.91" r="3.5" fill="#0072B2" stroke="#ffffff" stroke-width="0.8"/>
<circle cx="1230.00" cy="157.44" r="3.5" fill="#0072B2" stroke="#ffffff" stroke-width="0.8"/>
<line x1="710.00" x2="710.00" y1="438.66" y2="430.87" stroke="#D55E00"/>
<line x1="707.00" x2="713.00" y1="438.66" y2="438.66" stroke="#D55E00"/>
<line x1="707.00" x2="713.00" y1="430.87" y2="430.87" stroke="#D55E00"/>
<line x1="836.14" x2="836.14" y1="382.54" y2="359.98" stroke="#D55E00"/>
<line x1="833.14" x2="839.14" y1="382.54" y2="382.54" stroke="#D55E00"/>
<line x1="833.14" x2="839.14" y1="359.98" y2="359.98" stroke="#D55E00"/>
<line x1="964.80" x2="964.80" y1="315.85" y2="288.67" stroke="#D55E00"/>
<line x1="961.80" x2="967.80" y1="315.85" y2="315.85" stroke="#D55E00"/>
<line x1="961.80" x2="967.80" y1="288.67" y2="288.67" stroke="#D55E00"/>
<line x1="1096.06" x2="1096.06" y1="242.75" y2="211.27" stroke="#D55E00"/>
<line x1="1093.06" x2="1099.06" y1="242.75" y2="242.75" stroke="#D55E00"/>
<line x1="1093.06" x2="1099.06" y1="211.27" y2="211.27" stroke="#D55E00"/>
<line x1="1230.00" x2="1230.00" y1="169.01" y2="155.96" stroke="#D55E00"/>
<line x1="1227.00" x2="1233.00" y1="169.01" y2="169.01" stroke="#D55E00"/>
<line x1="1227.00" x2="1233.00" y1="155.96" y2="155.96" stroke="#D55E00"/>
<polyline points="710.00,434.77 836.14,371.26 964.80,302.26 1096.06,227.01 1230.00,162.48" fill="none" stroke="#D55E00" stroke-width="2"/>
<circle cx="710.00" cy="434.77" r="3.5" fill="#D55E00" stroke="#ffffff" stroke-width="0.8"/>
<circle cx="836.14" cy="371.26" r="3.5" fill="#D55E00" stroke="#ffffff" stroke-width="0.8"/>
<circle cx="964.80" cy="302.26" r="3.5" fill="#D55E00" stroke="#ffffff" stroke-width="0.8"/>
<circle cx="1096.06" cy="227.01" r="3.5" fill="#D55E00" stroke="#ffffff" stroke-width="0.8"/>
<circle cx="1230.00" cy="162.48" r="3.5" fill="#D55E00" stroke="#ffffff" stroke-width="0.8"/>
<line x1="710.00" x2="710.00" y1="440.05" y2="409.50" stroke="#009E73"/>
<line x1="707.00" x2="713.00" y1="440.05" y2="440.05" stroke="#009E73"/>
<line x1="707.00" x2="713.00" y1="409.50" y2="409.50" stroke="#009E73"/>
<line x1="836.14" x2="836.14" y1="372.78" y2="349.50" stroke="#009E73"/>
<line x1="833.14" x2="839.14" y1="372.78" y2="372.78" stroke="#009E73"/>
<line x1="833.14" x2="839.14" y1="349.50" y2="349.50" stroke="#009E73"/>
<line x1="964.80" x2="964.80" y1="333.10" y2="282.22" stroke="#009E73"/>
<line x1="961.80" x2="967.80" y1="333.10" y2="333.10" stroke="#009E73"/>
<line x1="961.80" x2="967.80" y1="282.22" y2="282.22" stroke="#009E73"/>
<line x1="1096.06" x2="1096.06" y1="290.25" y2="205.64" stroke="#009E73"/>
<line x1="1093.06" x2="1099.06" y1="290.25" y2="290.25" stroke="#009E73"/>
<line x1="1093.06" x2="1099.06" y1="205.64" y2="205.64" stroke="#009E73"/>
<line x1="1230.00" x2="1230.00" y1="226.64" y2="127.02" stroke="#009E73"/>
<line x1="1227.00" x2="1233.00" y1="226.64" y2="226.64" stroke="#009E73"/>
<line x1="1227.00" x2="1233.00" y1="127.02" y2="127.02" stroke="#009E73"/>
<polyline points="710.00,424.77 836.14,361.14 964.80,307.66 1096.06,247.94 1230.00,176.83" fill="none" stroke="#009E73" stroke-width="2"/>
<circle cx="710.00" cy="424.77" r="3.5" fill="#009E73" stroke="#ffffff" stroke-width="0.8"/>
<circle cx="836.14" cy="361.14" r="3.5" fill="#009E73" stroke="#ffffff" stroke-width="0.8"/>
<circle cx="964.80" cy="307.66" r="3.5" fill="#009E73" stroke="#ffffff" stroke-width="0.8"/>
<circle cx="1096.06" cy="247.94" r="3.5" fill="#009E73" stroke="#ffffff" stroke-width="0.8"/>
<circle cx="1230.00" cy="176.83" r="3.5" fill="#009E73" stroke="#ffffff" stroke-width="0.8"/>
<line x1="710.00" x2="710.00" y1="472.41" y2="425.12" stroke="#CC79A7"/>
<line x1="707.00" x2="713.00" y1="472.41" y2="472.41" stroke="#CC79A7"/>
<line x1="707.00" x2="713.00" y1="425.12" y2="425.12" stroke="#CC79A7"/>
<line x1="836.14" x2="836.14" y1="428.96" y2="393.97" stroke="#CC79A7"/>
<line x1="833.14" x2="839.14" y1="428.96" y2="428.96" stroke="#CC79A7"/>
<line x1="833.14" x2="839.14" y1="393.97" y2="393.97" stroke="#CC79A7"/>
<line x1="964.80" x2="964.80" y1="398.86" y2="382.96" stroke="#CC79A7"/>
<line x1="961.80" x2="967.80" y1="398.86" y2="398.86" stroke="#CC79A7"/>
<line x1="961.80" x2="967.80" y1="382.96" y2="382.96" stroke="#CC79A7"/>
<line x1="1096.06" x2="1096.06" y1="382.81" y2="348.78" stroke="#CC79A7"/>
<line x1="1093.06" x2="1099.06" y1="382.81" y2="382.81" stroke="#CC79A7"/>
<line x1="1093.06" x2="1099.06" y1="348.78" y2="348.78" stroke="#CC79A7"/>
<line x1="1230.00" x2="1230.00" y1="386.29" y2="309.55" stroke="#CC79A7"/>
<line x1="1227.00" x2="1233.00" y1="386.29" y2="386.29" stroke="#CC79A7"/>
<line x1="1227.00" x2="1233.00" y1="309.55" y2="309.55" stroke="#CC79A7"/>
<polyline points="710.00,448.77 836.14,411.47 964.80,390.91 1096.06,365.79 1230.00,347.92" fill="none" stroke="#CC79A7" stroke-width="2"/>
<circle cx="710.00" cy="448.77" r="3.5" fill="#CC79A7" stroke="#ffffff" stroke-width="0.8"/>
<circle cx="836.14" cy="411.47" r="3.5" fill="#CC79A7" stroke="#ffffff" stroke-width="0.8"/>
<circle cx="964.80" cy="390.91" r="3.5" fill="#CC79A7" stroke="#ffffff" stroke-width="0.8"/>
<circle cx="1096.06" cy="365.79" r="3.5" fill="#CC79A7" stroke="#ffffff" stroke-width="0.8"/>
<circle cx="1230.00" cy="347.92" r="3.5" fill="#CC79A7" stroke="#ffffff" stroke-width="0.8"/>
<line x1="710.00" x2="710.00" y1="491.14" y2="436.38" stroke="#E69F00"/>
<line x1="707.00" x2="713.00" y1="491.14" y2="491.14" stroke="#E69F00"/>
<line x1="707.00" x2="713.00" y1="436.38" y2="436.38" stroke="#E69F00"/>
<line x1="836.14" x2="836.14" y1="470.64" y2="429.51" stroke="#E69F00"/>
<line x1="833.14" x2="839.14" y1="470.64" y2="470.64" stroke="#E69F00"/>
<line x1="833.14" x2="839.14" y1="429.51" y2="429.51" stroke="#E69F00"/>
<line x1="964.80" x2="964.80" y1="458.11" y2="426.20" stroke="#E69F00"/>
<line x1="961.80" x2="967.80" y1="458.11" y2="458.11" stroke="#E69F00"/>
<line x1="961.80" x2="967.80" y1="426.20" y2="426.20" stroke="#E69F00"/>
<line x1="1096.06" x2="1096.06" y1="445.46" y2="418.95" stroke="#E69F00"/>
<line x1="1093.06" x2="1099.06" y1="445.46" y2="445.46" stroke="#E69F00"/>
<line x1="1093.06" x2="1099.06" y1="418.95" y2="418.95" stroke="#E69F00"/>
<line x1="1230.00" x2="1230.00" y1="438.79" y2="406.16" stroke="#E69F00"/>
<line x1="1227.00" x2="1233.00" y1="438.79" y2="438.79" stroke="#E69F00"/>
<line x1="1227.00" x2="1233.00" y1="406.16" y2="406.16" stroke="#E69F00"/>
<polyline points="710.00,463.76 836.14,450.07 964.80,442.15 1096.06,432.20 1230.00,422.48" fill="none" stroke="#E69F00" stroke-width="2"/>
<circle cx="710.00" cy="463.76" r="3.5" fill="#E69F00" stroke="#ffffff" stroke-width="0.8"/>
<circle cx="836.14" cy="450.07" r="3.5" fill="#E69F00" stroke="#ffffff" stroke-width="0.8"/>
<circle cx="964.80" cy="442.15" r="3.5" fill="#E69F00" stroke="#ffffff" stroke-width="0.8"/>
<circle cx="1096.06" cy="432.20" r="3.5" fill="#E69F00" stroke="#ffffff" stroke-width="0.8"/>
<circle cx="1230.00" cy="422.48" r="3.5" fill="#E69F00" stroke="#ffffff" stroke-width="0.8"/>
<line x1="710.00" x2="710.00" y1="503.74" y2="446.75" stroke="#56B4E9"/>
<line x1="707.00" x2="713.00" y1="503.74" y2="503.74" stroke="#56B4E9"/>
<line x1="707.00" x2="713.00" y1="446.75" y2="446.75" stroke="#56B4E9"/>
<line x1="836.14" x2="836.14" y1="504.53" y2="437.85" stroke="#56B4E9"/>
<line x1="833.14" x2="839.14" y1="504.53" y2="504.53" stroke="#56B4E9"/>
<line x1="833.14" x2="839.14" y1="437.85" y2="437.85" stroke="#56B4E9"/>
<line x1="964.80" x2="964.80" y1="502.02" y2="425.62" stroke="#56B4E9"/>
<line x1="961.80" x2="967.80" y1="502.02" y2="502.02" stroke="#56B4E9"/>
<line x1="961.80" x2="967.80" y1="425.62" y2="425.62" stroke="#56B4E9"/>
<line x1="1096.06" x2="1096.06" y1="498.19" y2="411.64" stroke="#56B4E9"/>
<line x1="1093.06" x2="1099.06" y1="498.19" y2="498.19" stroke="#56B4E9"/>
<line x1="1093.06" x2="1099.06" y1="411.64" y2="411.64" stroke="#56B4E9"/>
<line x1="1230.00" x2="1230.00" y1="486.30" y2="394.60" stroke="#56B4E9"/>
<line x1="1227.00" x2="1233.00" y1="486.30" y2="486.30" stroke="#56B4E9"/>
<line x1="1227.00" x2="1233.00" y1="394.60" y2="394.60" stroke="#56B4E9"/>
<polyline points="710.00,475.24 836.14,471.19 964.80,463.82 1096.06,454.92 1230.00,440.45" fill="none" stroke="#56B4E9" stroke-width="2"/>
<circle cx="710.00" cy="475.24" r="3.5" fill="#56B4E9" stroke="#ffffff" stroke-width="0.8"/>
<circle cx="836.14" cy="471.19" r="3.5" fill="#56B4E9" stroke="#ffffff" stroke-width="0.8"/>
<circle cx="964.80" cy="463.82" r="3.5" fill="#56B4E9" stroke="#ffffff" stroke-width="0.8"/>
<circle cx="1096.06" cy="454.92" r="3.5" fill="#56B4E9" stroke="#ffffff" stroke-width="0.8"/>
<circle cx="1230.00" cy="440.45" r="3.5" fill="#56B4E9" stroke="#ffffff" stroke-width="0.8"/>
<line x1="710.00" x2="710.00" y1="512.98" y2="467.83" stroke="#7A3E9D"/>
<line x1="707.00" x2="713.00" y1="512.98" y2="512.98" stroke="#7A3E9D"/>
<line x1="707.00" x2="713.00" y1="467.83" y2="467.83" stroke="#7A3E9D"/>
<line x1="836.14" x2="836.14" y1="505.27" y2="462.64" stroke="#7A3E9D"/>
<line x1="833.14" x2="839.14" y1="505.27" y2="505.27" stroke="#7A3E9D"/>
<line x1="833.14" x2="839.14" y1="462.64" y2="462.64" stroke="#7A3E9D"/>
<line x1="964.80" x2="964.80" y1="503.03" y2="461.28" stroke="#7A3E9D"/>
<line x1="961.80" x2="967.80" y1="503.03" y2="503.03" stroke="#7A3E9D"/>
<line x1="961.80" x2="967.80" y1="461.28" y2="461.28" stroke="#7A3E9D"/>
<line x1="1096.06" x2="1096.06" y1="495.41" y2="452.09" stroke="#7A3E9D"/>
<line x1="1093.06" x2="1099.06" y1="495.41" y2="495.41" stroke="#7A3E9D"/>
<line x1="1093.06" x2="1099.06" y1="452.09" y2="452.09" stroke="#7A3E9D"/>
<line x1="1230.00" x2="1230.00" y1="496.17" y2="451.05" stroke="#7A3E9D"/>
<line x1="1227.00" x2="1233.00" y1="496.17" y2="496.17" stroke="#7A3E9D"/>
<line x1="1227.00" x2="1233.00" y1="451.05" y2="451.05" stroke="#7A3E9D"/>
<polyline points="710.00,490.41 836.14,483.95 964.80,482.15 1096.06,473.75 1230.00,473.61" fill="none" stroke="#7A3E9D" stroke-width="2"/>
<circle cx="710.00" cy="490.41" r="3.5" fill="#7A3E9D" stroke="#ffffff" stroke-width="0.8"/>
<circle cx="836.14" cy="483.95" r="3.5" fill="#7A3E9D" stroke="#ffffff" stroke-width="0.8"/>
<circle cx="964.80" cy="482.15" r="3.5" fill="#7A3E9D" stroke="#ffffff" stroke-width="0.8"/>
<circle cx="1096.06" cy="473.75" r="3.5" fill="#7A3E9D" stroke="#ffffff" stroke-width="0.8"/>
<circle cx="1230.00" cy="473.61" r="3.5" fill="#7A3E9D" stroke="#ffffff" stroke-width="0.8"/>
<path d="M1225.00,152.44 L1235.00,162.44 M1225.00,162.44 L1235.00,152.44" stroke="#111827" stroke-width="2"/>
<path d="M1091.06,227.91 L1101.06,237.91 M1091.06,237.91 L1101.06,227.91" stroke="#111827" stroke-width="2"/>
<path d="M959.80,302.61 L969.80,312.61 M959.80,312.61 L969.80,302.61" stroke="#111827" stroke-width="2"/>
<path d="M831.14,370.70 L841.14,380.70 M831.14,380.70 L841.14,370.70" stroke="#111827" stroke-width="2"/>
<path d="M705.00,427.84 L715.00,437.84 M705.00,437.84 L715.00,427.84" stroke="#111827" stroke-width="2"/>
<polyline points="710.00,463.45 836.14,461.32 964.80,459.21 1096.06,457.06 1230.00,454.86" fill="none" stroke="#6b7280" stroke-width="2" stroke-dasharray="7 5"/>
<rect x="959.80" y="193.89" width="10" height="10" fill="#ffffff" stroke="#6b7280" stroke-width="2"/>
<text x="970.00" y="84.00" text-anchor="middle" font-size="17" font-weight="bold" fill="#17202a">Even string order</text>
<text x="970.00" y="591.00" text-anchor="middle" font-size="15" font-weight="normal" fill="#17202a">t_R / t_D</text>
<text x="646.00" y="320.00" text-anchor="middle" font-size="15" font-weight="normal" fill="#17202a" transform="rotate(-90 646 320.0)">String order</text>
<rect x="1370" y="100" width="520" height="440" fill="none" stroke="#4b5563"/>
<line x1="1370" x2="1890" y1="540.00" y2="540.00" stroke="#d9dee5"/>
<text x="1360.00" y="545.00" text-anchor="end" font-size="12" font-weight="normal" fill="#17202a">0.001</text>
<line x1="1370" x2="1890" y1="406.71" y2="406.71" stroke="#d9dee5"/>
<text x="1360.00" y="411.71" text-anchor="end" font-size="12" font-weight="normal" fill="#17202a">0.01</text>
<line x1="1370" x2="1890" y1="273.42" y2="273.42" stroke="#d9dee5"/>
<text x="1360.00" y="278.42" text-anchor="end" font-size="12" font-weight="normal" fill="#17202a">0.1</text>
<line x1="1370" x2="1890" y1="140.12" y2="140.12" stroke="#d9dee5"/>
<text x="1360.00" y="145.12" text-anchor="end" font-size="12" font-weight="normal" fill="#17202a">1</text>
<line x1="1370.00" x2="1370.00" y1="100" y2="540" stroke="#edf0f4"/>
<text x="1370.00" y="563.00" text-anchor="middle" font-size="12" font-weight="normal" fill="#17202a">0</text>
<line x1="1456.67" x2="1456.67" y1="100" y2="540" stroke="#edf0f4"/>
<text x="1456.67" y="563.00" text-anchor="middle" font-size="12" font-weight="normal" fill="#17202a">2</text>
<line x1="1543.33" x2="1543.33" y1="100" y2="540" stroke="#edf0f4"/>
<text x="1543.33" y="563.00" text-anchor="middle" font-size="12" font-weight="normal" fill="#17202a">4</text>
<line x1="1630.00" x2="1630.00" y1="100" y2="540" stroke="#edf0f4"/>
<text x="1630.00" y="563.00" text-anchor="middle" font-size="12" font-weight="normal" fill="#17202a">6</text>
<line x1="1716.67" x2="1716.67" y1="100" y2="540" stroke="#edf0f4"/>
<text x="1716.67" y="563.00" text-anchor="middle" font-size="12" font-weight="normal" fill="#17202a">8</text>
<line x1="1803.33" x2="1803.33" y1="100" y2="540" stroke="#edf0f4"/>
<text x="1803.33" y="563.00" text-anchor="middle" font-size="12" font-weight="normal" fill="#17202a">10</text>
<line x1="1890.00" x2="1890.00" y1="100" y2="540" stroke="#edf0f4"/>
<text x="1890.00" y="563.00" text-anchor="middle" font-size="12" font-weight="normal" fill="#17202a">12</text>
<line x1="1370.00" x2="1370.00" y1="143.64" y2="143.64" stroke="#0072B2" opacity="0.65"/>
<line x1="1413.33" x2="1413.33" y1="144.84" y2="143.97" stroke="#0072B2" opacity="0.65"/>
<line x1="1456.67" x2="1456.67" y1="143.79" y2="139.53" stroke="#0072B2" opacity="0.65"/>
<line x1="1500.00" x2="1500.00" y1="181.66" y2="133.36" stroke="#0072B2" opacity="0.65"/>
<line x1="1543.33" x2="1543.33" y1="210.57" y2="154.52" stroke="#0072B2" opacity="0.65"/>
<line x1="1586.67" x2="1586.67" y1="243.91" y2="172.66" stroke="#0072B2" opacity="0.65"/>
<line x1="1630.00" x2="1630.00" y1="262.63" y2="213.70" stroke="#0072B2" opacity="0.65"/>
<line x1="1673.33" x2="1673.33" y1="253.95" y2="201.33" stroke="#0072B2" opacity="0.65"/>
<line x1="1716.67" x2="1716.67" y1="311.82" y2="218.13" stroke="#0072B2" opacity="0.65"/>
<line x1="1760.00" x2="1760.00" y1="367.67" y2="206.22" stroke="#0072B2" opacity="0.65"/>
<line x1="1803.33" x2="1803.33" y1="398.37" y2="212.48" stroke="#0072B2" opacity="0.65"/>
<line x1="1846.67" x2="1846.67" y1="389.50" y2="284.59" stroke="#0072B2" opacity="0.65"/>
<line x1="1890.00" x2="1890.00" y1="540.00" y2="310.67" stroke="#0072B2" opacity="0.65"/>
<polyline points="1370.00,143.64 1374.33,143.77 1378.67,143.91 1383.00,144.04 1387.33,144.17 1391.67,144.30 1396.00,144.42 1400.33,144.14 1404.67,144.24 1409.00,144.34 1413.33,144.41 1417.67,144.45 1422.00,144.46 1426.33,144.42 1430.67,144.34 1435.00,144.21 1439.33,144.03 1443.67,143.81 1448.00,142.41 1452.33,142.04 1456.67,141.62 1461.00,141.19 1465.33,140.80 1469.67,140.50 1474.00,140.32 1478.33,140.28 1482.67,140.43 1487.00,140.81 1491.33,141.20 1495.67,160.02 1500.00,152.61 1504.33,153.61 1508.67,155.13 1513.00,156.92 1517.33,158.77 1521.67,160.70 1526.00,162.90 1530.33,165.59 1534.67,168.82 1539.00,172.39 1543.33,176.01 1547.67,179.46 1552.00,182.71 1556.33,185.94 1560.67,189.29 1565.00,192.64 1569.33,195.49 1573.67,197.28 1578.00,197.90 1582.33,197.92 1586.67,197.96 1591.00,198.13 1595.33,198.08 1599.67,197.53 1604.00,197.88 1608.33,197.59 1612.67,197.32 1617.00,250.06 1621.33,244.79 1625.67,236.32 1630.00,233.14 1634.33,237.06 1638.67,243.71 1643.00,245.78 1647.33,240.98 1651.67,234.19 1656.00,229.68 1660.33,227.83 1664.67,226.94 1669.00,223.68 1673.33,221.85 1677.67,220.45 1682.00,220.41 1686.33,222.28 1690.67,225.95 1695.00,230.60 1699.33,234.98 1703.67,238.40 1708.00,241.25 1712.33,244.34 1716.67,247.78 1721.00,299.87 1725.33,300.51 1729.67,298.99 1734.00,294.06 1738.33,283.23 1742.67,273.43 1747.00,263.94 1751.33,254.61 1755.67,247.96 1760.00,242.89 1764.33,239.52 1768.67,237.62 1773.00,236.76 1777.33,236.31 1781.67,236.76 1786.00,237.71 1790.33,239.37 1794.67,241.86 1799.00,246.07 1803.33,250.32 1807.67,255.41 1812.00,260.77 1816.33,266.13 1820.67,271.68 1825.00,277.93 1829.33,282.99 1833.67,290.65 1838.00,298.72 1842.33,307.11 1846.67,315.96 1851.00,325.49 1855.33,336.04 1859.67,362.13 1864.00,373.15 1868.33,383.57 1872.67,396.76 1877.00,417.05 1881.33,447.88 1885.67,486.80 1890.00,369.47" fill="none" stroke="#0072B2" stroke-width="2"/>
<circle cx="1370.00" cy="143.64" r="3.2" fill="#0072B2"/>
<circle cx="1413.33" cy="144.41" r="3.2" fill="#0072B2"/>
<circle cx="1456.67" cy="141.62" r="3.2" fill="#0072B2"/>
<circle cx="1500.00" cy="152.61" r="3.2" fill="#0072B2"/>
<circle cx="1543.33" cy="176.01" r="3.2" fill="#0072B2"/>
<circle cx="1586.67" cy="197.96" r="3.2" fill="#0072B2"/>
<circle cx="1630.00" cy="233.14" r="3.2" fill="#0072B2"/>
<circle cx="1673.33" cy="221.85" r="3.2" fill="#0072B2"/>
<circle cx="1716.67" cy="247.78" r="3.2" fill="#0072B2"/>
<circle cx="1760.00" cy="242.89" r="3.2" fill="#0072B2"/>
<circle cx="1803.33" cy="250.32" r="3.2" fill="#0072B2"/>
<circle cx="1846.67" cy="315.96" r="3.2" fill="#0072B2"/>
<circle cx="1890.00" cy="369.47" r="3.2" fill="#0072B2"/>
<line x1="1370" x2="1890" y1="345.58" y2="345.58" stroke="#0072B2" stroke-width="2" stroke-dasharray="7 5"/>
<line x1="1370.00" x2="1370.00" y1="143.28" y2="143.28" stroke="#D55E00" opacity="0.65"/>
<line x1="1413.33" x2="1413.33" y1="144.51" y2="143.70" stroke="#D55E00" opacity="0.65"/>
<line x1="1456.67" x2="1456.67" y1="144.56" y2="140.88" stroke="#D55E00" opacity="0.65"/>
<line x1="1500.00" x2="1500.00" y1="173.13" y2="143.69" stroke="#D55E00" opacity="0.65"/>
<line x1="1543.33" x2="1543.33" y1="177.24" y2="141.60" stroke="#D55E00" opacity="0.65"/>
<line x1="1586.67" x2="1586.67" y1="234.65" y2="166.27" stroke="#D55E00" opacity="0.65"/>
<line x1="1630.00" x2="1630.00" y1="272.21" y2="179.82" stroke="#D55E00" opacity="0.65"/>
<line x1="1673.33" x2="1673.33" y1="392.92" y2="230.14" stroke="#D55E00" opacity="0.65"/>
<line x1="1716.67" x2="1716.67" y1="355.77" y2="229.67" stroke="#D55E00" opacity="0.65"/>
<line x1="1760.00" x2="1760.00" y1="331.37" y2="187.99" stroke="#D55E00" opacity="0.65"/>
<line x1="1803.33" x2="1803.33" y1="326.08" y2="240.82" stroke="#D55E00" opacity="0.65"/>
<line x1="1846.67" x2="1846.67" y1="540.00" y2="310.15" stroke="#D55E00" opacity="0.65"/>
<line x1="1890.00" x2="1890.00" y1="321.79" y2="278.23" stroke="#D55E00" opacity="0.65"/>
<polyline points="1370.00,143.28 1374.33,143.42 1378.67,143.55 1383.00,143.69 1387.33,143.82 1391.67,143.95 1396.00,144.07 1400.33,143.80 1404.67,143.91 1409.00,144.01 1413.33,144.10 1417.67,144.18 1422.00,144.22 1426.33,144.23 1430.67,144.20 1435.00,144.12 1439.33,143.99 1443.67,143.82 1448.00,143.22 1452.33,142.97 1456.67,142.69 1461.00,142.41 1465.33,142.15 1469.67,141.92 1474.00,141.74 1478.33,141.63 1482.67,141.62 1487.00,141.72 1491.33,141.97 1495.67,155.09 1500.00,156.56 1504.33,155.98 1508.67,155.27 1513.00,154.54 1517.33,153.91 1521.67,153.47 1526.00,153.31 1530.33,153.46 1534.67,154.03 1539.00,155.10 1543.33,156.72 1547.67,158.86 1552.00,161.40 1556.33,164.28 1560.67,167.53 1565.00,171.20 1569.33,175.27 1573.67,179.57 1578.00,183.78 1582.33,187.62 1586.67,190.90 1591.00,193.58 1595.33,195.71 1599.67,197.31 1604.00,204.64 1608.33,205.05 1612.67,204.96 1617.00,208.40 1621.33,207.94 1625.67,208.18 1630.00,209.26 1634.33,211.32 1638.67,214.46 1643.00,218.77 1647.33,224.25 1651.67,230.61 1656.00,237.34 1660.33,244.12 1664.67,250.96 1669.00,259.56 1673.33,266.89 1677.67,272.84 1682.00,276.10 1686.33,276.57 1690.67,274.94 1695.00,272.04 1699.33,268.89 1703.67,266.55 1708.00,265.38 1712.33,264.65 1716.67,263.59 1721.00,229.53 1725.33,226.74 1729.67,226.81 1734.00,227.22 1738.33,218.82 1742.67,216.35 1747.00,214.98 1751.33,214.38 1755.67,218.57 1760.00,223.44 1764.33,227.42 1768.67,230.89 1773.00,235.50 1777.33,230.17 1781.67,239.64 1786.00,246.15 1790.33,249.44 1794.67,252.86 1799.00,258.98 1803.33,269.00 1807.67,281.62 1812.00,294.58 1816.33,305.85 1820.67,314.64 1825.00,322.72 1829.33,330.81 1833.67,345.04 1838.00,359.92 1842.33,367.44 1846.67,361.58 1851.00,348.89 1855.33,338.77 1859.67,319.12 1864.00,318.83 1868.33,318.47 1872.67,316.10 1877.00,312.87 1881.33,311.53 1885.67,313.63 1890.00,296.01" fill="none" stroke="#D55E00" stroke-width="2"/>
<circle cx="1370.00" cy="143.28" r="3.2" fill="#D55E00"/>
<circle cx="1413.33" cy="144.10" r="3.2" fill="#D55E00"/>
<circle cx="1456.67" cy="142.69" r="3.2" fill="#D55E00"/>
<circle cx="1500.00" cy="156.56" r="3.2" fill="#D55E00"/>
<circle cx="1543.33" cy="156.72" r="3.2" fill="#D55E00"/>
<circle cx="1586.67" cy="190.90" r="3.2" fill="#D55E00"/>
<circle cx="1630.00" cy="209.26" r="3.2" fill="#D55E00"/>
<circle cx="1673.33" cy="266.89" r="3.2" fill="#D55E00"/>
<circle cx="1716.67" cy="263.59" r="3.2" fill="#D55E00"/>
<circle cx="1760.00" cy="223.44" r="3.2" fill="#D55E00"/>
<circle cx="1803.33" cy="269.00" r="3.2" fill="#D55E00"/>
<circle cx="1846.67" cy="361.58" r="3.2" fill="#D55E00"/>
<circle cx="1890.00" cy="296.01" r="3.2" fill="#D55E00"/>
<line x1="1370" x2="1890" y1="346.59" y2="346.59" stroke="#D55E00" stroke-width="2" stroke-dasharray="7 5"/>
<text x="1630.00" y="84.00" text-anchor="middle" font-size="17" font-weight="bold" fill="#17202a">Absolute central slopes</text>
<text x="1630.00" y="591.00" text-anchor="middle" font-size="15" font-weight="normal" fill="#17202a">Evolution time</text>
<text x="1312.00" y="320.00" text-anchor="middle" font-size="15" font-weight="normal" fill="#17202a" transform="rotate(-90 1312 320.0)">|dSO/d(t_R/t_D)| (log)</text>
<text x="1630.00" y="665.00" text-anchor="middle" font-size="11" font-weight="normal" fill="#17202a">Error bars including zero are clipped at 10⁻³</text>
<line x1="75" x2="99" y1="605" y2="605" stroke="#0072B2" stroke-width="3"/>
<circle cx="87" cy="605" r="3.5" fill="#0072B2"/>
<text x="106.00" y="610.00" text-anchor="start" font-size="12" font-weight="normal" fill="#17202a">t=0</text>
<line x1="180" x2="204" y1="605" y2="605" stroke="#D55E00" stroke-width="3"/>
<circle cx="192" cy="605" r="3.5" fill="#D55E00"/>
<text x="211.00" y="610.00" text-anchor="start" font-size="12" font-weight="normal" fill="#17202a">t=2</text>
<line x1="285" x2="309" y1="605" y2="605" stroke="#009E73" stroke-width="3"/>
<circle cx="297" cy="605" r="3.5" fill="#009E73"/>
<text x="316.00" y="610.00" text-anchor="start" font-size="12" font-weight="normal" fill="#17202a">t=4</text>
<line x1="390" x2="414" y1="605" y2="605" stroke="#CC79A7" stroke-width="3"/>
<circle cx="402" cy="605" r="3.5" fill="#CC79A7"/>
<text x="421.00" y="610.00" text-anchor="start" font-size="12" font-weight="normal" fill="#17202a">t=6</text>
<line x1="495" x2="519" y1="605" y2="605" stroke="#E69F00" stroke-width="3"/>
<circle cx="507" cy="605" r="3.5" fill="#E69F00"/>
<text x="526.00" y="610.00" text-anchor="start" font-size="12" font-weight="normal" fill="#17202a">t=8</text>
<line x1="600" x2="624" y1="605" y2="605" stroke="#56B4E9" stroke-width="3"/>
<circle cx="612" cy="605" r="3.5" fill="#56B4E9"/>
<text x="631.00" y="610.00" text-anchor="start" font-size="12" font-weight="normal" fill="#17202a">t=10</text>
<line x1="705" x2="729" y1="605" y2="605" stroke="#7A3E9D" stroke-width="3"/>
<circle cx="717" cy="605" r="3.5" fill="#7A3E9D"/>
<text x="736.00" y="610.00" text-anchor="start" font-size="12" font-weight="normal" fill="#17202a">t=12</text>
<path d="M850,600 L860,610 M850,610 L860,600" stroke="#111827" stroke-width="2"/>
<text x="867.00" y="610.00" text-anchor="start" font-size="12" font-weight="normal" fill="#17202a">U=10 GS</text>
<line x1="970" x2="994" y1="605" y2="605" stroke="#6b7280" stroke-width="2" stroke-dasharray="7 5"/>
<text x="1001.00" y="610.00" text-anchor="start" font-size="12" font-weight="normal" fill="#17202a">U=0 GS D100</text>
<rect x="1135" y="600" width="10" height="10" fill="#ffffff" stroke="#6b7280" stroke-width="2"/>
<text x="1152.00" y="610.00" text-anchor="start" font-size="12" font-weight="normal" fill="#17202a">U=0 GS D200 center</text>
<line x1="1390" x2="1414" y1="605" y2="605" stroke="#0072B2" stroke-width="2"/>
<text x="1421.00" y="610.00" text-anchor="start" font-size="12" font-weight="normal" fill="#17202a">|odd slope|</text>
<line x1="1530" x2="1554" y1="605" y2="605" stroke="#D55E00" stroke-width="2"/>
<text x="1561.00" y="610.00" text-anchor="start" font-size="12" font-weight="normal" fill="#17202a">|even slope|</text>
<line x1="1680" x2="1704" y1="605" y2="605" stroke="#0072B2" stroke-width="2" stroke-dasharray="7 5"/>
<text x="1711.00" y="610.00" text-anchor="start" font-size="12" font-weight="normal" fill="#17202a">U=0 odd</text>
<line x1="1810" x2="1834" y1="605" y2="605" stroke="#D55E00" stroke-width="2" stroke-dasharray="7 5"/>
<text x="1841.00" y="610.00" text-anchor="start" font-size="12" font-weight="normal" fill="#17202a">U=0 even</text>
</svg>